<?xml version="1.0" standalone="no"?>
<!DOCTYPE svg PUBLIC "-//W3C//DTD SVG 20010904//EN"
 "http://www.w3.org/TR/2001/REC-SVG-20010904/DTD/svg10.dtd">
<svg version="1.0" xmlns="http://www.w3.org/2000/svg"
 width="225.000000pt" height="225.000000pt" viewBox="0 0 225.000000 225.000000"
 preserveAspectRatio="xMidYMid meet">
<metadata>
Created by potrace 1.14, written by Peter Selinger 2001-2017
</metadata>
<g transform="translate(0.000000,225.000000) scale(0.100000,-0.100000)"
fill="#000000" stroke="none">
<path d="M234 2070 c-12 -4 -31 -21 -43 -36 l-21 -27 0 -884 c0 -960 -2 -925
55 -951 19 -9 247 -12 914 -12 l889 0 31 29 31 29 0 896 c0 989 4 932 -62 955
-38 13 -1762 14 -1794 1z m1771 -80 c9 -15 6 -1733 -3 -1742 -10 -10 -1727
-12 -1742 -3 -11 7 -14 1737 -3 1748 11 11 1741 8 1748 -3z"/>
<path d="M646 1599 c-12 -62 -20 -59 158 -59 161 0 164 0 170 23 3 12 6 32 6
45 0 22 -1 22 -164 22 l-163 0 -7 -31z"/>
<path d="M1009 1435 l-35 -195 51 0 52 0 22 113 c12 61 24 120 27 130 5 14 18
17 95 17 l91 0 -6 -27 c-3 -16 -35 -181 -71 -368 -36 -187 -68 -348 -71 -357
-4 -13 -18 -18 -57 -20 l-51 -3 -12 -57 -11 -58 178 0 c198 0 181 -7 194 78
l7 42 -56 0 c-31 0 -56 3 -56 8 0 4 32 177 72 385 l72 377 94 0 c84 0 93 -2
88 -17 -5 -18 -46 -230 -46 -239 0 -3 24 -4 53 -2 l52 3 17 85 c9 47 25 133
36 193 l19 107 -356 0 -357 0 -35 -195z"/>
<path d="M590 1306 c0 -7 -3 -28 -6 -45 l-6 -31 166 0 c134 0 166 3 166 14 0
7 3 28 6 45 l7 31 -167 0 c-134 0 -166 -3 -166 -14z"/>
<path d="M537 993 c-3 -10 -8 -30 -11 -45 l-6 -28 304 0 c333 0 316 -3 316 61
l0 29 -299 0 c-277 0 -300 -1 -304 -17z"/>
<path d="M475 673 c-15 -69 -40 -63 240 -63 l253 0 6 31 c12 63 28 59 -244 59
l-250 0 -5 -27z"/>
</g>
</svg>
